<?xml version="1.0" encoding="iso-8859-1"?>
<!-- Generator: Adobe Illustrator 19.0.0, SVG Export Plug-In . SVG Version: 6.00 Build 0)  -->
<svg version="1.1" id="Capa_1" xmlns="http://www.w3.org/2000/svg" xmlns:xlink="http://www.w3.org/1999/xlink" x="0px" y="0px"
	 viewBox="0 0 512 512" style="enable-background:new 0 0 512 512;" xml:space="preserve">
<path style="fill:#C6C5CA;" d="M361.582,309.609V113.082C361.582,54.771,314.311,7.5,256,7.5l0,0
	c-58.311,0-105.582,47.271-105.582,105.582V309.61H61.109c0,107.634,87.256,194.89,194.891,194.89s194.891-87.256,194.891-194.891
	H361.582z"/>
<g>
	<path style="fill:#898890;" d="M280.917,264.614L280.917,264.614c-32.344,0-58.564-26.22-58.564-58.564v-74.993
		c0-32.344,26.22-58.564,58.564-58.564l0,0c32.344,0,58.564,26.22,58.564,58.564v74.993
		C339.481,238.394,313.261,264.614,280.917,264.614z"/>
	<path style="fill:#898890;" d="M106.527,309.609H61.109C61.109,417.245,148.365,504.5,256,504.5c7.683,0,15.258-0.459,22.709-1.324
		C181.775,491.925,106.527,409.561,106.527,309.609z"/>
	<path style="fill:#898890;" d="M195.836,113.082c0-50.514,35.477-92.735,82.873-103.125C271.394,8.353,263.797,7.5,256,7.5l0,0
		c-58.311,0-105.582,47.271-105.582,105.582V309.61h45.418V113.082z"/>
	<path style="fill:#898890;" d="M256,264.614L256,264.614c-32.344,0-58.564-26.22-58.564-58.564v-74.993
		c0-32.344,26.22-58.564,58.564-58.564l0,0c32.344,0,58.564,26.22,58.564,58.564v74.993
		C314.564,238.394,288.344,264.614,256,264.614z"/>
</g>
<path style="fill:#57565C;" d="M233.5,206.049v-74.993c0-26.05,17.014-48.117,40.532-55.723c-5.682-1.838-11.738-2.842-18.032-2.842
	l0,0c-32.344,0-58.564,26.22-58.564,58.564v74.993c0,32.344,26.22,58.564,58.564,58.564l0,0c6.294,0,12.35-1.004,18.032-2.842
	C250.514,254.166,233.5,232.1,233.5,206.049z"/>
<g>
	<path style="fill:#FFFFFF;" d="M297.955,36.242c-4.794-2.633-9.857-4.822-15.046-6.504l-4.626,14.269
		c4.293,1.392,8.483,3.203,12.452,5.383L297.955,36.242z"/>
	<path style="fill:#FFFFFF;" d="M324.812,90.354l14.25-4.683c-5.697-17.335-17.017-32.812-31.875-43.579l-8.802,12.146
		C310.708,63.167,320.093,75.994,324.812,90.354z"/>
	<path style="fill:#FFFFFF;" d="M272.306,27.026C266.964,26.014,261.478,25.5,256,25.5v15c4.543,0,9.089,0.425,13.512,1.264
		L272.306,27.026z"/>
</g>
<g>
	<path style="fill:#1D1D1F;" d="M369.082,302.109V113.082C369.082,50.728,318.354,0,256,0S142.918,50.728,142.918,113.082V302.11
		H53.609v7.5C53.609,421.208,144.401,512,256,512s202.391-90.792,202.391-202.391v-7.5H369.082z M256,497
		c-100.817,0-183.295-80.023-187.243-179.891h74.161v31.029h15V188.5h19.749v-15h-19.749v-60.418c0-54.083,44-98.082,98.082-98.082
		s98.082,43.999,98.082,98.082V129.5h-22.145v15h22.145v203.639h15V317.11h74.161C439.295,416.977,356.817,497,256,497z"/>
	<path style="fill:#1D1D1F;" d="M322.064,131.056c0-36.428-29.636-66.064-66.064-66.064c-27.459,0-51.051,16.842-61.008,40.736
		h-17.326v15h13.082c-0.531,3.367-0.813,6.815-0.813,10.328v74.993c0,36.428,29.636,66.064,66.064,66.064
		c33.891,0,61.889-25.656,65.627-58.564h16.957v-15h-16.519L322.064,131.056L322.064,131.056z M307.064,206.049
		c0,28.157-22.907,51.064-51.064,51.064s-51.064-22.907-51.064-51.064v-74.993c0-28.157,22.907-51.064,51.064-51.064
		s51.064,22.907,51.064,51.064V206.049z"/>
	<path style="fill:#1D1D1F;" d="M277.064,206.049c0,11.615-9.45,21.064-21.064,21.064v15c19.886,0,36.064-16.178,36.064-36.064
		V178.5h-15V206.049z"/>
	<rect x="298.42" y="302.56" style="fill:#1D1D1F;" width="15" height="15"/>
	<rect x="223.42" y="302.56" style="fill:#1D1D1F;" width="15" height="15"/>
	<rect x="323.42" y="302.56" style="fill:#1D1D1F;" width="15" height="15"/>
	<rect x="173.42" y="302.56" style="fill:#1D1D1F;" width="15" height="15"/>
	<rect x="248.42" y="302.56" style="fill:#1D1D1F;" width="15" height="15"/>
	<rect x="198.42" y="302.56" style="fill:#1D1D1F;" width="15" height="15"/>
	<rect x="273.42" y="302.56" style="fill:#1D1D1F;" width="15" height="15"/>
	<rect x="298.42" y="339.22" style="fill:#1D1D1F;" width="15" height="15"/>
	<rect x="248.42" y="339.22" style="fill:#1D1D1F;" width="15" height="15"/>
	<rect x="273.42" y="339.22" style="fill:#1D1D1F;" width="15" height="15"/>
	<rect x="223.42" y="339.22" style="fill:#1D1D1F;" width="15" height="15"/>
	<rect x="198.42" y="339.22" style="fill:#1D1D1F;" width="15" height="15"/>
	<rect x="323.42" y="339.22" style="fill:#1D1D1F;" width="15" height="15"/>
	<rect x="173.42" y="339.22" style="fill:#1D1D1F;" width="15" height="15"/>
	<rect x="91.08" y="339.22" style="fill:#1D1D1F;" width="15" height="15"/>
	<rect x="116.08" y="339.22" style="fill:#1D1D1F;" width="15" height="15"/>
	<rect x="323.5" y="265.89" style="fill:#1D1D1F;" width="15" height="15"/>
	<rect x="298.5" y="265.89" style="fill:#1D1D1F;" width="15" height="15"/>
	<rect x="173.5" y="265.89" style="fill:#1D1D1F;" width="15" height="15"/>
	<rect x="198.5" y="265.89" style="fill:#1D1D1F;" width="15" height="15"/>
	<rect x="405.92" y="339.22" style="fill:#1D1D1F;" width="15" height="15"/>
	<rect x="380.92" y="339.22" style="fill:#1D1D1F;" width="15" height="15"/>
	<rect x="98.37" y="375.89" style="fill:#1D1D1F;" width="15" height="15"/>
	<rect x="123.37" y="375.89" style="fill:#1D1D1F;" width="15" height="15"/>
	<rect x="223.37" y="375.89" style="fill:#1D1D1F;" width="15" height="15"/>
	<rect x="173.37" y="375.89" style="fill:#1D1D1F;" width="15" height="15"/>
	<rect x="198.37" y="375.89" style="fill:#1D1D1F;" width="15" height="15"/>
	<rect x="148.37" y="375.89" style="fill:#1D1D1F;" width="15" height="15"/>
	<rect x="273.37" y="375.89" style="fill:#1D1D1F;" width="15" height="15"/>
	<rect x="298.37" y="375.89" style="fill:#1D1D1F;" width="15" height="15"/>
	<rect x="348.37" y="375.89" style="fill:#1D1D1F;" width="15" height="15"/>
	<rect x="323.37" y="375.89" style="fill:#1D1D1F;" width="15" height="15"/>
	<rect x="248.37" y="375.89" style="fill:#1D1D1F;" width="15" height="15"/>
	<rect x="373.37" y="375.89" style="fill:#1D1D1F;" width="15" height="15"/>
	<rect x="398.37" y="375.89" style="fill:#1D1D1F;" width="15" height="15"/>
	<rect x="173.42" y="412.56" style="fill:#1D1D1F;" width="15" height="15"/>
	<rect x="323.42" y="412.56" style="fill:#1D1D1F;" width="15" height="15"/>
	<rect x="348.42" y="412.56" style="fill:#1D1D1F;" width="15" height="15"/>
	<rect x="123.42" y="412.56" style="fill:#1D1D1F;" width="15" height="15"/>
	<rect x="148.42" y="412.56" style="fill:#1D1D1F;" width="15" height="15"/>
	<rect x="373.42" y="412.56" style="fill:#1D1D1F;" width="15" height="15"/>
	<rect x="198.42" y="412.56" style="fill:#1D1D1F;" width="15" height="15"/>
	<rect x="223.42" y="412.56" style="fill:#1D1D1F;" width="15" height="15"/>
	<rect x="248.42" y="412.56" style="fill:#1D1D1F;" width="15" height="15"/>
	<rect x="298.42" y="412.56" style="fill:#1D1D1F;" width="15" height="15"/>
	<rect x="273.42" y="412.56" style="fill:#1D1D1F;" width="15" height="15"/>
	<rect x="273.42" y="449.22" style="fill:#1D1D1F;" width="15" height="15"/>
	<rect x="223.42" y="449.22" style="fill:#1D1D1F;" width="15" height="15"/>
	<rect x="323.42" y="449.22" style="fill:#1D1D1F;" width="15" height="15"/>
	<rect x="248.42" y="449.22" style="fill:#1D1D1F;" width="15" height="15"/>
	<rect x="173.42" y="449.22" style="fill:#1D1D1F;" width="15" height="15"/>
	<rect x="298.42" y="449.22" style="fill:#1D1D1F;" width="15" height="15"/>
	<rect x="198.42" y="449.22" style="fill:#1D1D1F;" width="15" height="15"/>
</g>
<g>
	<rect x="216" y="166.57" style="fill:#FFFFFF;" width="15" height="41.33"/>
	<rect x="216" y="141.57" style="fill:#FFFFFF;" width="15" height="15"/>
	<rect x="216" y="116.57" style="fill:#FFFFFF;" width="15" height="15"/>
</g>
<g>
</g>
<g>
</g>
<g>
</g>
<g>
</g>
<g>
</g>
<g>
</g>
<g>
</g>
<g>
</g>
<g>
</g>
<g>
</g>
<g>
</g>
<g>
</g>
<g>
</g>
<g>
</g>
<g>
</g>
</svg>
