<?xml version="1.0" encoding="iso-8859-1"?>
<!-- Generator: Adobe Illustrator 19.0.0, SVG Export Plug-In . SVG Version: 6.00 Build 0)  -->
<svg version="1.1" id="Capa_1" xmlns="http://www.w3.org/2000/svg" xmlns:xlink="http://www.w3.org/1999/xlink" x="0px" y="0px"
	 viewBox="0 0 512 512" style="enable-background:new 0 0 512 512;" xml:space="preserve">
<g>
	<path style="fill:#FF9811;" d="M279.235,123.423l-59.429-59.429C181.041,25.23,119.355,23.018,77.974,57.357L55.71,35.092H22.457
		l-11.85,11.851l67.046,67.046L99.17,92.472c25.45-25.45,66.71-25.45,92.16,0l59.429,59.429L279.235,123.423z"/>
	<path style="fill:#FF9811;" d="M476.91,456.293l-22.265-22.265c34.339-41.381,32.127-103.068-6.638-141.832l-59.434-59.434
		l-28.477,28.477l59.435,59.435c25.449,25.449,25.449,66.709,0,92.158l-21.519,21.519l67.046,67.046l11.85-11.85L476.91,456.293
		L476.91,456.293z"/>
</g>
<g>
	<polygon style="fill:#FF5023;" points="45.117,46.943 56.339,35.722 55.71,35.092 22.457,35.092 10.606,46.943 77.652,113.989 
		94.907,96.733 	"/>
	<path style="fill:#FF5023;" d="M432.525,434.351l21.519-21.519c25.449-25.449,25.449-66.709,0-92.158l-59.434-59.435l11.221-11.221
		l-17.256-17.256l-28.477,28.477l59.435,59.435c25.449,25.449,25.449,66.709,0,92.158l-21.519,21.519l67.046,67.046l11.85-11.85
		v-10.81L432.525,434.351z"/>
	<path style="fill:#FF5023;" d="M225.841,92.472c-17.157-17.156-41.496-22.729-63.335-16.753
		c10.556,2.888,20.532,8.461,28.824,16.753l59.429,59.429l17.256-17.256L225.841,92.472z"/>
</g>
<rect x="254.296" y="-0.894" transform="matrix(-0.7071 -0.7071 0.7071 -0.7071 278.7614 608.6147)" style="fill:#FFB655;" width="22.266" height="494.936"/>
<polygon style="fill:#C6C5CA;" points="475.36,52.387 475.311,36.692 459.615,36.642 432.544,63.713 448.289,79.458 "/>
<g>
	<polygon style="fill:#FFFFFF;" points="113.916,382.341 80.301,367.947 128.369,319.879 161.984,334.272 	"/>
	<polygon style="fill:#FFFFFF;" points="129.661,398.086 144.055,431.701 192.123,383.633 177.73,350.017 	"/>
</g>
<g>
	<polygon style="fill:#D8D7DA;" points="103.286,367.947 144.464,326.771 128.369,319.879 80.301,367.947 113.916,382.341 
		120.808,375.45 	"/>
	<polygon style="fill:#D8D7DA;" points="152.646,398.086 184.62,366.112 177.73,350.017 129.661,398.086 144.055,431.701 
		160.149,415.607 	"/>
</g>
<polygon style="fill:#C6C5CA;" points="430.475,7.502 459.615,36.642 459.615,36.642 475.311,36.691 475.36,52.387 475.36,52.387 
	504.5,81.527 504.5,7.502 "/>
<polygon style="fill:#898890;" points="453.131,7.502 430.475,7.502 459.615,36.642 475.311,36.691 475.36,52.387 504.5,81.527 
	504.5,58.872 "/>
<g>
	
		<rect x="317.853" y="200.972" transform="matrix(0.7071 0.7071 -0.7071 0.7071 260.9045 -182.6582)" style="fill:#FFDAAA;" width="66.175" height="45.277"/>
	
		<rect x="255.306" y="138.425" transform="matrix(-0.7071 -0.7071 0.7071 -0.7071 378.4384 478.8811)" style="fill:#FFDAAA;" width="66.185" height="45.277"/>
</g>
<g>
	<polygon style="fill:#FF9478;" points="275.808,153.669 294.414,135.063 281.005,121.654 248.988,153.669 295.788,200.469 
		309.198,187.059 	"/>
	<polygon style="fill:#FF9478;" points="338.353,216.214 356.959,197.608 343.549,184.198 311.533,216.214 358.328,263.01 
		371.738,249.599 	"/>
</g>
<g>
	
		<rect x="434.405" y="307.082" transform="matrix(0.7071 0.7071 -0.7071 0.7071 351.8734 -220.3352)" style="fill:#FFFFFF;" width="14.999" height="14.999"/>
	
		<rect x="416.732" y="289.403" transform="matrix(-0.7071 0.7071 -0.7071 -0.7071 934.1502 206.8673)" style="fill:#FFFFFF;" width="14.999" height="14.999"/>
	
		<rect x="390.738" y="251.644" transform="matrix(-0.7072 0.707 -0.707 -0.7072 871.4142 180.9546)" style="fill:#FFFFFF;" width="14.999" height="38.546"/>
</g>
<g>
	<path style="fill:#1D1D1F;" d="M104.473,97.774c22.483-22.485,59.069-22.485,81.552,0l54.127,54.126l-1.769,1.77l39.508,39.508
		l20.246-20.245l-10.606-10.606l-9.639,9.64l-18.296-18.296l21.411-21.411l27.354,27.356l10.606-10.605l-37.962-37.963l-1.77,1.77
		l-54.126-54.126c-20-19.999-46.603-31.69-74.913-32.922c-25.811-1.124-50.989,6.513-71.604,21.601L58.816,27.593H19.351L0,46.942
		l77.651,77.652L104.473,97.774z M25.563,42.593h27.04l24.9,24.901l5.26-4.365c38.482-31.933,96.348-29.223,131.739,6.17
		l54.127,54.126l-3.632,3.632l-47.169-47.169l-10.606,10.606l47.169,47.169l-3.632,3.632l-54.126-54.127
		C182.464,73,163.86,65.918,145.249,65.918c-18.605,0-37.218,7.085-51.382,21.249l-16.216,16.215l-56.44-56.44L25.563,42.593z"/>
	<path style="fill:#1D1D1F;" d="M486.233,361.806c-1.231-28.309-12.923-54.913-32.922-74.913l-54.131-54.131l1.77-1.77
		l-37.957-37.957l-10.605,10.606l4.958,4.958l-11.985,11.985l10.606,10.606l11.986-11.986l11.786,11.785l-21.411,21.41
		l-27.35-27.351l-10.606,10.606l37.957,37.956l1.77-1.77l54.131,54.132c22.485,22.484,22.485,59.068,0,81.552l-26.82,26.821
		l77.651,77.651l19.35-19.351v-39.466l-19.776-19.776C479.721,412.795,487.356,387.628,486.233,361.806z M448.874,429.24
		l-4.365,5.26l24.901,24.9v27.04l-4.351,4.352l-56.44-56.44l16.216-16.215c28.332-28.332,28.332-74.434,0-102.765l-54.132-54.131
		l17.871-17.871l54.13,54.132C478.097,332.891,480.807,390.759,448.874,429.24z"/>
	<path style="fill:#1D1D1F;" d="M412.37,0.002l36.64,36.64L160.272,325.38l-33.616-14.393l-39.703,39.701l-1.802-208.482
		l-14.999,0.129l2.126,245.927l14.999-0.129l-0.078-9.074l13.58,5.815L71.962,413.69l26.35,26.35l28.817-28.817l5.815,13.58
		l-9.074-0.078l-0.129,14.999l245.927,2.126l0.129-14.999l-208.482-1.802l39.701-39.703l-14.393-33.616L475.36,62.992L512,99.632
		V0.002H412.37z M130.083,328.772l18.763,8.034l-12.607,12.607l-18.763-8.034L130.083,328.772z M106.052,352.803l18.763,8.034
		l-12.611,12.611l-18.763-8.034L106.052,352.803z M151.163,387.19l8.034,18.763l-12.609,12.609l-8.034-18.763L151.163,387.19z
		 M170.621,394.528l-8.034-18.763l12.609-12.609l8.034,18.763L170.621,394.528z M98.311,418.829l-5.139-5.139L432.544,74.319
		l5.14,5.14L98.311,418.829z M448.289,68.852l-5.14-5.14l19.562-19.562l5.123,0.016l0.016,5.123L448.289,68.852z M497.001,63.422
		L482.85,49.271l-0.063-20.056l-20.056-0.063L448.58,15.001h48.421V63.422z"/>
	
		<rect x="233.547" y="350.268" transform="matrix(-0.7071 -0.7071 0.7071 -0.7071 158.5113 781.1932)" style="fill:#1D1D1F;" width="14.999" height="14.999"/>
	
		<rect x="284.367" y="252.576" transform="matrix(-0.7071 -0.7071 0.7071 -0.7071 281.2024 730.3724)" style="fill:#1D1D1F;" width="14.999" height="108.743"/>
	
		<rect x="215.86" y="367.954" transform="matrix(0.7071 0.7071 -0.7071 0.7071 330.906 -47.9715)" style="fill:#1D1D1F;" width="14.999" height="14.999"/>
	
		<rect x="315.484" y="278.071" transform="matrix(-0.7071 -0.7071 0.7071 -0.7071 325.8789 772.7592)" style="fill:#1D1D1F;" width="14.999" height="81.634"/>
	
		<rect x="197.992" y="166.202" transform="matrix(-0.7071 -0.7071 0.7071 -0.7071 194.8264 521.8473)" style="fill:#1D1D1F;" width="14.999" height="108.743"/>
	
		<rect x="147.165" y="263.892" transform="matrix(-0.7071 -0.7071 0.7071 -0.7071 72.1255 572.6578)" style="fill:#1D1D1F;" width="14.999" height="14.999"/>
	
		<rect x="129.492" y="281.574" transform="matrix(0.7071 0.7071 -0.7071 0.7071 244.5301 -12.2001)" style="fill:#1D1D1F;" width="14.999" height="14.999"/>
	
		<rect x="186.034" y="148.637" transform="matrix(-0.7071 -0.7071 0.7071 -0.7071 196.4181 460.2677)" style="fill:#1D1D1F;" width="14.999" height="81.634"/>
</g>
<g>
</g>
<g>
</g>
<g>
</g>
<g>
</g>
<g>
</g>
<g>
</g>
<g>
</g>
<g>
</g>
<g>
</g>
<g>
</g>
<g>
</g>
<g>
</g>
<g>
</g>
<g>
</g>
<g>
</g>
</svg>
