<?xml version="1.0" encoding="iso-8859-1"?>
<!-- Generator: Adobe Illustrator 19.0.0, SVG Export Plug-In . SVG Version: 6.00 Build 0)  -->
<svg version="1.1" id="Capa_1" xmlns="http://www.w3.org/2000/svg" xmlns:xlink="http://www.w3.org/1999/xlink" x="0px" y="0px"
	 viewBox="0 0 512 512" style="enable-background:new 0 0 512 512;" xml:space="preserve">
<path style="fill:#FFB655;" d="M121.707,238.709l-10.771,33.337c-7.363,3.766-11.49,5.879-18.853,9.645l-70.811-22.879
	c-3.766-7.363-5.879-11.49-9.645-18.853l10.771-33.337L121.707,238.709z"/>
<path style="fill:#FF7956;" d="M50.117,258.813c-3.766-7.363-5.879-11.49-9.645-18.853l8.044-24.897l-26.12-8.439L11.624,239.96
	c3.766,7.363,5.879,11.49,9.645,18.853l70.812,22.879c4.421-2.261,7.677-3.927,11.166-5.713L50.117,258.813z"/>
<rect x="7.501" y="326.222" style="fill:#FFB655;" width="72.749" height="57.507"/>
<g>
	<circle style="fill:#FF7956;" cx="57.949" cy="354.975" r="15.293"/>
	<rect x="7.501" y="326.222" style="fill:#FF7956;" width="28.144" height="57.507"/>
</g>
<circle style="fill:#C6C5CA;" cx="43.876" cy="354.975" r="15.293"/>
<path style="fill:#898890;" d="M42.658,354.975c0-5.906,3.353-11.02,8.255-13.568c-2.108-1.095-4.498-1.724-7.037-1.724
	c-8.446,0-15.293,6.847-15.293,15.293c0,8.446,6.847,15.293,15.293,15.293c2.539,0,4.93-0.628,7.037-1.724
	C46.011,365.996,42.658,360.881,42.658,354.975z"/>
<rect x="265.994" y="133.707" style="fill:#FFB655;" width="36.712" height="202.036"/>
<rect x="265.994" y="133.707" style="fill:#FF7956;" width="18.355" height="202.036"/>
<polygon style="fill:#FFB655;" points="178.347,335.737 126.431,335.736 265.994,196.173 265.994,248.089 "/>
<polygon style="fill:#FF7956;" points="148.781,335.736 265.994,218.522 265.994,196.172 126.431,335.736 178.347,335.737 
	178.348,335.736 "/>
<polygon style="fill:#FFB655;" points="390.352,335.737 442.269,335.736 302.706,196.173 302.706,248.089 "/>
<polygon style="fill:#FF7956;" points="322.709,248.09 322.709,216.174 302.706,196.172 302.706,248.09 390.352,335.737 
	410.355,335.736 "/>
<circle style="fill:#898890;" cx="244.001" cy="119.645" r="14.062"/>
<path style="fill:#57565C;" d="M241.941,119.645c0-5.615,3.299-10.445,8.057-12.699c-1.822-0.863-3.852-1.36-6.002-1.36
	c-7.764,0-14.059,6.294-14.059,14.059c0,7.764,6.294,14.059,14.059,14.059c2.15,0,4.18-0.497,6.002-1.36
	C245.241,130.09,241.941,125.259,241.941,119.645z"/>
<path style="fill:#C6C5CA;" d="M310.644,105.586h-66.648c7.764,0,14.059,6.294,14.059,14.059s-6.294,14.059-14.059,14.059h66.648
	c7.764,0,14.059-6.294,14.059-14.059S318.409,105.586,310.644,105.586z"/>
<path style="fill:#898890;" d="M278.592,119.645c0-7.764-6.294-14.059-14.059-14.059h-20.537c7.764,0,14.059,6.294,14.059,14.059
	c0,7.764-6.294,14.059-14.059,14.059h20.538C272.298,133.703,278.592,127.409,278.592,119.645z"/>
<g>
	<polygon style="fill:#FF9811;" points="265.994,310.847 265.994,290.328 234.071,280.014 218.562,295.522 	"/>
	<polygon style="fill:#FF9811;" points="194.831,267.335 120.244,243.236 114.241,261.816 179.323,282.844 	"/>
	<circle style="fill:#FF9811;" cx="140.698" cy="371.077" r="35.335"/>
	<circle style="fill:#FF9811;" cx="394.401" cy="371.077" r="35.335"/>
</g>
<g>
	<path style="fill:#FF5023;" d="M130.809,371.074c0-15.03,9.387-27.859,22.614-32.967c-3.949-1.525-8.236-2.37-12.724-2.37
		c-19.517,0-35.338,15.821-35.338,35.338c0,19.517,15.821,35.338,35.338,35.338c4.488,0,8.775-0.845,12.724-2.37
		C140.195,398.933,130.809,386.104,130.809,371.074z"/>
	<path style="fill:#FF5023;" d="M384.515,371.074c0-15.03,9.387-27.859,22.614-32.967c-3.95-1.525-8.236-2.37-12.724-2.37
		c-19.517,0-35.338,15.821-35.338,35.338c0,19.517,15.821,35.338,35.338,35.338c4.488,0,8.774-0.845,12.724-2.37
		C393.902,398.933,384.515,386.104,384.515,371.074z"/>
</g>
<g>
	<path style="fill:#FFB655;" d="M140.701,335.737c19.516,0.001,35.336,15.822,35.336,35.338c0,1.059-0.055,2.104-0.146,3.139
		h183.324c-0.091-1.035-0.146-2.08-0.146-3.139c0-19.516,15.82-35.337,35.336-35.338H140.701z"/>
	<path style="fill:#FFB655;" d="M105.362,371.074c0-19.516,15.82-35.337,35.336-35.338H80.25v38.477h25.257
		C105.417,373.179,105.362,372.133,105.362,371.074z"/>
	<path style="fill:#FFB655;" d="M394.408,335.737c19.516,0.001,35.336,15.822,35.336,35.338c0,1.059-0.055,2.104-0.146,3.139h74.902
		v-38.477L394.408,335.737L394.408,335.737z"/>
</g>
<g>
	<path style="fill:#FF7956;" d="M173.362,335.737h-0.005c-5.893,0-11.443,1.451-16.328,4.002
		c11.293,5.898,19.007,17.712,19.007,31.336c0,1.059-0.055,2.104-0.146,3.139h32.66c0.091-1.035,0.146-2.081,0.146-3.139
		C208.698,351.559,192.878,335.738,173.362,335.737z"/>
	<path style="fill:#FF7956;" d="M112.911,349.258v-13.522H80.25v38.478h25.257c-0.091-1.035-0.146-2.081-0.146-3.139
		C105.362,362.838,108.187,355.266,112.911,349.258z"/>
	<path style="fill:#FF7956;" d="M427.068,335.737h-0.005c-5.892,0-11.443,1.451-16.328,4.002
		c11.293,5.898,19.007,17.712,19.007,31.336c0,1.059-0.055,2.104-0.146,3.139h32.66c0.091-1.035,0.146-2.081,0.146-3.139
		C462.404,351.559,446.584,335.738,427.068,335.737z"/>
</g>
<g>
	<rect x="197.145" y="347.474" style="fill:#1D1D1F;" width="15.002" height="15.002"/>
	<rect x="247.152" y="347.474" style="fill:#1D1D1F;" width="15.002" height="15.002"/>
	<rect x="272.155" y="347.474" style="fill:#1D1D1F;" width="15.002" height="15.002"/>
	<rect x="222.149" y="347.474" style="fill:#1D1D1F;" width="15.002" height="15.002"/>
</g>
<g>
	<rect x="276.846" y="201.415" style="fill:#FFFFFF;" width="15.002" height="41.822"/>
	<rect x="276.846" y="151.409" style="fill:#FFFFFF;" width="15.002" height="15.002"/>
	<rect x="276.846" y="176.412" style="fill:#FFFFFF;" width="15.002" height="15.002"/>
</g>
<g>
	<rect x="133.197" y="363.576" style="fill:#1D1D1F;" width="15.002" height="15.002"/>
	<rect x="386.9" y="363.576" style="fill:#1D1D1F;" width="15.002" height="15.002"/>
	<path style="fill:#1D1D1F;" d="M512,328.236H170.499l23.769-23.769l-10.608-10.608l-34.377,34.377H87.751v-9.514H39.938
		l-9.013-48.908l61.806,19.97l24.386-12.476l1.954-6.049l46.275,14.95l-24.219,24.219l10.608,10.608l106.758-106.755v30.702
		l-65.447,65.446l10.608,10.608l16.967-16.967l37.872,12.236v6.429h15.002v-181.53h21.71l0,0l0,0v181.531l0,0l0,0h15.002v-56.535
		l54.838,54.838l10.608-10.608l-65.446-65.445v-4.368l30.643,30.643l10.608-10.608l-41.251-41.251v-5.117L416.963,321.04
		l10.608-10.608L310.206,193.068v-51.862h0.438c11.889,0,21.56-9.671,21.56-21.56s-9.671-21.56-21.56-21.56h-66.648
		c-11.889,0-21.561,9.671-21.561,21.56c0,7.308,3.658,13.774,9.237,17.675l-83.397,107.089l-18.589-6.006l1.463-4.528L17.565,197.18
		L3.533,240.611l10.559,20.64l10.591,57.472H0v72.506h87.751v-9.514h11.447c4.744,18.491,21.551,32.198,41.5,32.198
		c19.951,0,36.758-13.708,41.5-32.198h133.537v6.912h15.002v-6.912h22.167c4.744,18.491,21.551,32.198,41.5,32.198
		c19.95,0,36.757-13.708,41.5-32.198h18.152v6.912h15.002v-6.912H512V328.236z M150.701,265.714l2.957-3.797l27.196,8.787
		l-3.592,3.592L150.701,265.714z M232.538,292.154l3.593-3.593l22.362,7.226v4.755L232.538,292.154z M258.493,280.022l-10.447-3.375
		l10.447-10.447V280.022z M310.644,113.087c3.615,0,6.558,2.941,6.558,6.558c0,3.616-2.941,6.558-6.558,6.558h-46.11
		c0.662-2.069,1.023-4.272,1.023-6.558c0-2.286-0.361-4.489-1.023-6.558H310.644z M243.997,113.087c3.615,0,6.558,2.941,6.558,6.558
		c0,3.616-2.941,6.558-6.558,6.558c-3.616,0-6.559-2.941-6.559-6.558C237.439,116.028,240.381,113.087,243.997,113.087z
		 M247.663,141.205h10.83v51.861l-65.722,65.721l-29.303-9.467L247.663,141.205z M138.467,257.007l-2.958,3.798l-11.825-3.82
		l1.072-3.32l0.318-0.985L138.467,257.007z M112.262,243.541l-7.51,23.243l-13.321,6.814l-64.899-20.969l-6.814-13.321l0.538-1.666
		l56.899,18.384l4.612-14.275l-56.899-18.383l2.359-7.301L112.262,243.541z M43.876,347.184c4.297,0,7.791,3.495,7.791,7.792
		s-3.494,7.791-7.791,7.791s-7.792-3.494-7.792-7.791S39.579,347.184,43.876,347.184z M52.102,333.725h20.648v42.503H52.102
		c8.513-3.307,14.567-11.582,14.567-21.251C66.669,345.307,60.615,337.031,52.102,333.725z M15.002,333.725H35.65
		c-8.514,3.307-14.568,11.583-14.568,21.252s6.054,17.943,14.567,21.251H15.002V333.725z M87.751,343.238h20.426
		c-5.533,6.455-9.191,14.562-10.096,23.475H87.751V343.238z M140.699,398.911c-15.349,0-27.837-12.488-27.837-27.837
		s12.488-27.837,27.837-27.837c15.35,0,27.838,12.488,27.838,27.837S156.048,398.911,140.699,398.911z M183.318,366.713
		c-0.905-8.913-4.564-17.02-10.096-23.475h142.515v23.475L183.318,366.713L183.318,366.713z M330.739,343.238h31.145
		c-5.533,6.455-9.191,14.562-10.096,23.475h-21.049V343.238z M394.405,398.911c-15.349,0-27.837-12.488-27.837-27.837
		s12.488-27.837,27.837-27.837s27.837,12.488,27.837,27.837S409.754,398.911,394.405,398.911z M437.023,366.713
		c-0.905-8.913-4.564-17.02-10.096-23.475h27.132v23.475L437.023,366.713L437.023,366.713z M496.998,366.713H469.06v-23.475h27.938
		V366.713z"/>
</g>
<g>
</g>
<g>
</g>
<g>
</g>
<g>
</g>
<g>
</g>
<g>
</g>
<g>
</g>
<g>
</g>
<g>
</g>
<g>
</g>
<g>
</g>
<g>
</g>
<g>
</g>
<g>
</g>
<g>
</g>
</svg>
